# xmcd
#
# Track frame offsets: 
#        150
#        24236
#        54648
#        75323
#        91710
#        119058
#        143186
#        157635
#        171161
#        204735
#        221748
#        248111
#        272673
#        297236
#        326861
#
# Disc length: 4640 seconds
#
# Revision: 0
# Processed by: cddbd v1.5.2PL0 Copyright (c) Steve Scherf et al.
# Submitted via: ExactAudioCopyFreeDBPlugin 1.0
#
DISCID=d3121e0f
DTITLE=Башаков - Live in the Rock Bar
DYEAR=2014
DGENRE=Acoustic
TTITLE0=Самбади
TTITLE1=Мальчик
TTITLE2=Время уходит
TTITLE3=Утро
TTITLE4=Звуки песни о тебе
TTITLE5=Шахтер
TTITLE6=Танцуй
TTITLE7=Фонари
TTITLE8=Карман
TTITLE9=Быть знаменитым
TTITLE10=Не парься
TTITLE11=Блюз о блюзе
TTITLE12=Сигналы из глубины
TTITLE13=Светлый день
TTITLE14=Элис
EXTD=
EXTT0=
EXTT1=
EXTT2=
EXTT3=
EXTT4=
EXTT5=
EXTT6=
EXTT7=
EXTT8=
EXTT9=
EXTT10=
EXTT11=
EXTT12=
EXTT13=
EXTT14=
PLAYORDER=
